<svg xmlns="http://www.w3.org/2000/svg" viewBox="0 0 512 512" role="img" aria-label="黄道吉日罗盘日历">
  <defs>
    <linearGradient id="bg" x1="72" y1="56" x2="442" y2="454" gradientUnits="userSpaceOnUse">
      <stop stop-color="#d7a94f"/>
      <stop offset="1" stop-color="#0f7568"/>
    </linearGradient>
    <linearGradient id="paper" x1="122" y1="128" x2="390" y2="402" gradientUnits="userSpaceOnUse">
      <stop stop-color="#fffaf1"/>
      <stop offset="1" stop-color="#f2e7d3"/>
    </linearGradient>
  </defs>
  <rect width="512" height="512" rx="96" fill="#18342f"/>
  <circle cx="256" cy="256" r="184" fill="url(#bg)" opacity=".92"/>
  <path d="M150 126h212c23 0 42 19 42 42v196c0 23-19 42-42 42H150c-23 0-42-19-42-42V168c0-23 19-42 42-42Z" fill="url(#paper)" stroke="#18342f" stroke-width="12"/>
  <path d="M108 204h296" stroke="#18342f" stroke-width="12" stroke-linecap="round"/>
  <path d="M176 106v64M336 106v64" stroke="#fffaf1" stroke-width="24" stroke-linecap="round"/>
  <circle cx="256" cy="304" r="74" fill="#fffaf1" stroke="#0f7568" stroke-width="12"/>
  <path d="M256 240v128M192 304h128" stroke="#d5a345" stroke-width="10" stroke-linecap="round"/>
  <path d="M256 230 284 304 256 378 228 304Z" fill="#c95e4b"/>
  <circle cx="256" cy="304" r="12" fill="#18342f"/>
  <path d="M164 246h44M304 246h44M164 374h44M304 374h44" stroke="#0f7568" stroke-width="12" stroke-linecap="round"/>
</svg>
